ply
format ascii 1.0
comment Created by Open Asset Import Library - http://assimp.sf.net (v5.2.559101463)
element vertex 7
property double x
property double y
property double z
element face 3
property list uchar int vertex_index
end_header
0.10000000000000001 0.20000000000000001 0.29999999999999999
2.1000000000000001 9.4000000000000004 6.7000000000000002
7.5 5.2000000000000002 6.2999999999999998
8.0999999999999996 1.3999999999999999 4.7000000000000002
4.7000000000000002 2.1000000000000001 1.3
9.3000000000000007 5.2999999999999998 6.7000000000000002
7.5 4.2000000000000002 2.7999999999999998
3 0 1 2
4 1 3 4 2
4 1 5 6 3
